<?xml version="1.0" encoding="UTF-8" standalone="no"?>
<!-- Created with Inkscape (http://www.inkscape.org/) -->

<svg
   xmlns:dc="http://purl.org/dc/elements/1.1/"
   xmlns:cc="http://creativecommons.org/ns#"
   xmlns:rdf="http://www.w3.org/1999/02/22-rdf-syntax-ns#"
   xmlns:svg="http://www.w3.org/2000/svg"
   xmlns="http://www.w3.org/2000/svg"
   xmlns:sodipodi="http://sodipodi.sourceforge.net/DTD/sodipodi-0.dtd"
   xmlns:inkscape="http://www.inkscape.org/namespaces/inkscape"
   id="svg3336"
   version="1.1"
   inkscape:version="0.91 r13725"
   width="1120"
   height="1120"
   viewBox="0 0 1120 1120"
   sodipodi:docname="アンパンマン.svg">
  <metadata
     id="metadata3342">
    <rdf:RDF>
      <cc:Work
         rdf:about="">
        <dc:format>image/svg+xml</dc:format>
        <dc:type
           rdf:resource="http://purl.org/dc/dcmitype/StillImage" />
        <dc:title></dc:title>
      </cc:Work>
    </rdf:RDF>
  </metadata>
  <defs
     id="defs3340" />
  <sodipodi:namedview
     pagecolor="#ffffff"
     bordercolor="#666666"
     borderopacity="1"
     objecttolerance="10"
     gridtolerance="10"
     guidetolerance="10"
     inkscape:pageopacity="0"
     inkscape:pageshadow="2"
     inkscape:window-width="1280"
     inkscape:window-height="790"
     id="namedview3338"
     showgrid="false"
     inkscape:zoom="0.26116071"
     inkscape:cx="891.34685"
     inkscape:cy="549.82834"
     inkscape:window-x="-8"
     inkscape:window-y="-8"
     inkscape:window-maximized="1"
     inkscape:current-layer="svg3336" />
  <path
     style="fill:#ff6600;fill-rule:evenodd;stroke:#000000;stroke-width:1px;stroke-linecap:butt;stroke-linejoin:miter;stroke-opacity:1"
     d="m 421.94975,603.95931 c -18.32046,3.65755 -12.13058,158.61709 -16.06941,198.22872 -52.96542,27.21049 -97.54477,6.89995 -139.76068,-26.80342 -47.69647,-76.63564 -64.30699,-44.47047 -93.81197,-57.4359 -13.40946,12.68307 57.04895,65.86338 74.66667,116.78633 43.05224,60.67674 97.75641,47.55795 151.24786,42.11966 l 0,99.55555 c -12.35761,39.28945 -28.67135,46.92985 -44.49873,58.46125 36.33187,2.8226 84.1523,6.089 96.19104,-43.14501 2.1055,-37.59198 3.39376,-80.90468 1.91453,-143.58974 l 13.40171,-30.63248 3.82906,193.36753 c -14.91999,17.7703 -25.41293,32.5893 -29.51097,43.145 22.25351,4.6777 40.56053,28.0938 83.11781,-45.0595 l 2.70755,-187.15943 14.52321,-13.86625 5.74359,197.19658 c 16.85523,39.7776 41.68124,58.8311 76.5812,51.6923 -31.16521,-65.88678 -24.11211,-66.45353 -26.80342,-105.29914 l 0,-134.01709 19.1453,24.88889 0,149.33333 c 18.02558,45.87621 54.38987,45.90571 93.81197,38.29061 0.36205,-1.5805 -25.26108,-32.19827 -38.2906,-49.77779 l -5.74359,-181.88034 c -2.86503,-30.96379 -0.34663,-194.36647 -2.08703,-178.05812 20.9551,-24.41987 -128.30188,-198.99599 -229.26253,-7.77426 z"
     id="path3348"
     inkscape:connector-curvature="0"
     sodipodi:nodetypes="cccccccccccccccccccccccccccc" />
  <path
     style="fill:#ffb380;fill-rule:evenodd;stroke:#000000;stroke-width:1px;stroke-linecap:butt;stroke-linejoin:miter;stroke-opacity:1"
     d="M 257.74732,383.57385 C 296.73037,202.21792 393.34053,112.38741 547.57782,114.08232 648.60699,94.036604 803.66691,167.86237 845.03543,373.40435 840.77263,538.638 738.28127,640.37409 557.74731,663.23486 308.41497,619.79197 290.18394,499.31531 257.74732,383.57385 Z"
     id="path3360"
     inkscape:connector-curvature="0"
     sodipodi:nodetypes="ccccc" />
  <path
     style="fill:#280b0b;fill-rule:evenodd;stroke:#000000;stroke-width:1px;stroke-linecap:butt;stroke-linejoin:miter;stroke-opacity:1"
     d="m 450.96765,271.70944 c 3.97483,-16.65508 2.43072,-36.50532 27.96611,-40.67797 20.8213,6.32428 24.58876,20.60702 27.81188,35.14379 -3.29637,22.26306 -11.21994,34.39674 -25.26951,41.1274 -9.09826,-7.95935 -21.0217,2.60507 -30.50848,-35.59322 z"
     id="path3362"
     inkscape:connector-curvature="0"
     sodipodi:nodetypes="ccccc" />
  <path
     style="fill:#280b0b;fill-rule:evenodd;stroke:#000000;stroke-width:1px;stroke-linecap:butt;stroke-linejoin:miter;stroke-opacity:1"
     d="m 622.95015,304.60607 c -11.31234,5.72969 -21.44872,-6.43812 -26.77203,-37.84039 3.53598,-21.43184 12.44815,-33.18655 27.9661,-33.05085 7.09824,-0.46203 15.94063,-11.01571 25.42373,33.05085 1.20562,34.42366 -11.31967,38.78192 -26.6178,37.84039 z"
     id="path3364"
     inkscape:connector-curvature="0"
     sodipodi:nodetypes="ccccc" />
  <path
     style="fill:#ff0000;fill-rule:evenodd;stroke:#000000;stroke-width:1px;stroke-linecap:butt;stroke-linejoin:miter;stroke-opacity:1"
     d="m 552.66257,322.5569 c -28.79768,2.68528 -56.70804,13.35645 -78.81356,76.27118 0.84746,41.52542 25.42373,66.1017 73.72881,73.72882 47.97049,-4.34638 93.19636,-11.13243 81.35594,-68.64407 -1.15582,-45.31958 -20.9993,-76.6234 -76.27119,-81.35593 z"
     id="path3366"
     inkscape:connector-curvature="0"
     sodipodi:nodetypes="ccccc" />
  <path
     style="fill:#ff0000;fill-rule:evenodd;stroke:#000000;stroke-width:1px;stroke-linecap:butt;stroke-linejoin:miter;stroke-opacity:1"
     d="m 717.91681,307.30266 c -37.54443,23.51524 -82.6429,40.73544 -81.35594,96.61017 13.47989,54.0254 46.71117,76.44857 94.0678,76.27119 24.70544,-19.90754 55.56031,-5.08209 71.18644,-76.27119 0.80185,-65.08105 -37.76203,-85.17269 -83.8983,-96.61017 z"
     id="path3368"
     inkscape:connector-curvature="0"
     sodipodi:nodetypes="ccccc" />
  <path
     style="fill:#ff0000;fill-rule:evenodd;stroke:#000000;stroke-width:1px;stroke-linecap:butt;stroke-linejoin:miter;stroke-opacity:1"
     d="m 300.96766,393.74334 c 18.61391,-67.94739 49.40414,-75.0132 81.35593,-76.27119 79.22074,-3.63414 66.92216,47.64331 83.8983,81.35593 1.18673,58.74126 -38.2382,71.06917 -83.8983,76.27119 -42.28251,-2.85645 -72.89565,-24.3839 -81.35593,-81.35593 z"
     id="path3370"
     inkscape:connector-curvature="0"
     sodipodi:nodetypes="ccccc" />
  <path
     style="fill:#280b0b;fill-rule:evenodd;stroke:#000000;stroke-width:1px;stroke-linecap:butt;stroke-linejoin:miter;stroke-opacity:1"
     d="m 583.45795,202.54032 c 11.3532,-16.6981 18.51592,-36.27715 48.08926,-40.4489 42.29289,11.99867 37.22693,30.31184 46.29152,46.74095 -15.79224,-14.66132 -33.95544,-39.99197 -45.39266,-35.05571 -20.10017,-4.79469 -43.00389,25.68938 -48.98812,28.76366 z"
     id="path3372"
     inkscape:connector-curvature="0"
     sodipodi:nodetypes="ccccc" />
  <path
     style="fill:#280b0b;fill-rule:evenodd;stroke:#000000;stroke-width:1px;stroke-linecap:butt;stroke-linejoin:miter;stroke-opacity:1"
     d="m 518.29027,207.48407 c -2.07836,-2.79808 -5.1282,-9.1369 -3.17554,-7.69888 8.73448,6.43241 4.82552,-16.95374 -41.76768,-37.69377 -37.62309,14.64327 -41.79438,30.48123 -46.74096,46.29152 15.0191,-12.25761 27.63088,-32.5396 45.84209,-34.15685 7.5849,1.59451 4.49867,-9.97203 45.84209,33.25798 z"
     id="path3374"
     inkscape:connector-curvature="0"
     sodipodi:nodetypes="cscccc" />
  <path
     style="fill:#ff0000;fill-rule:evenodd;stroke:#000000;stroke-width:1px;stroke-linecap:butt;stroke-linejoin:miter;stroke-opacity:1"
     d="m 415.37443,518.31961 c 42.78529,15.01963 102.61904,52.9888 130.40566,45.91693 29.22568,9.97505 91.029,-28.91637 136.5435,-43.37456 3.25621,4.27852 -1.84368,17.47327 -21.18721,25.14175 21.8222,-30.48327 15.96477,17.27325 -112.28737,34.60401 -29.64978,-3.91609 -72.6434,-9.761 -137.28814,-52.11864 -3.95307,-4.69589 -1.80436,-7.86634 3.81356,-10.16949 z"
     id="path3376"
     inkscape:connector-curvature="0"
     sodipodi:nodetypes="ccccccc" />
  <path
     style="fill:#aa0000"
     id="path3430"
     sodipodi:type="arc"
     sodipodi:cx="222.01944"
     sodipodi:cy="749.06506"
     sodipodi:rx="8.0334978"
     sodipodi:ry="23.096331"
     sodipodi:start="0"
     sodipodi:end="5.8775994"
     d="m 230.05294,749.06506 a 8.0334978,23.096331 0 0 1 -7.22033,22.97771 8.0334978,23.096331 0 0 1 -8.68204,-18.32597 8.0334978,23.096331 0 0 1 5.46268,-26.68772 8.0334978,23.096331 0 0 1 9.78794,12.92316"
     sodipodi:open="true" />
  <path
     style="fill:#aa0000"
     id="path3432"
     sodipodi:type="arc"
     sodipodi:cx="266.01721"
     sodipodi:cy="819.46149"
     sodipodi:rx="10.153328"
     sodipodi:ry="27.075542"
     sodipodi:start="0"
     sodipodi:end="5.8776057"
     sodipodi:open="true"
     d="m 276.17054,819.46149 a 10.153328,27.075542 0 0 1 -9.1256,26.93648 10.153328,27.075542 0 0 1 -10.973,-21.48339 10.153328,27.075542 0 0 1 6.90419,-31.28564 10.153328,27.075542 0 0 1 12.37071,15.14985" />
  <path
     style="fill:#aa0000"
     id="path3434"
     sodipodi:type="arc"
     sodipodi:cx="345.21317"
     sodipodi:cy="839.09125"
     sodipodi:rx="12.183993"
     sodipodi:ry="19.629768"
     sodipodi:start="0"
     sodipodi:end="5.8776057"
     sodipodi:open="true"
     d="m 357.39716,839.09125 a 12.183993,19.629768 0 0 1 -10.95072,19.52895 12.183993,19.629768 0 0 1 -13.1676,-15.57546 12.183993,19.629768 0 0 1 8.28503,-22.68209 12.183993,19.629768 0 0 1 14.84485,10.98364" />
  <path
     style="fill:#aa0000"
     id="path3436"
     sodipodi:type="arc"
     sodipodi:cx="417.64023"
     sodipodi:cy="864.81305"
     sodipodi:rx="15.568437"
     sodipodi:ry="23.691099"
     sodipodi:start="0"
     sodipodi:end="5.8776057"
     sodipodi:open="true"
     d="m 433.20866,864.81305 a 15.568437,23.691099 0 0 1 -13.99258,23.56942 15.568437,23.691099 0 0 1 -16.82527,-18.79797 15.568437,23.691099 0 0 1 10.58643,-27.37493 15.568437,23.691099 0 0 1 18.96842,13.25612" />
  <path
     style="fill:#aa0000"
     id="path3438"
     sodipodi:type="arc"
     sodipodi:cx="435.91623"
     sodipodi:cy="963.63873"
     sodipodi:rx="10.830216"
     sodipodi:ry="27.75243"
     sodipodi:start="0"
     sodipodi:end="5.8776057"
     sodipodi:open="true"
     d="m 446.74645,963.63873 a 10.830216,27.75243 0 0 1 -9.73397,27.60989 10.830216,27.75243 0 0 1 -11.70454,-22.02047 10.830216,27.75243 0 0 1 7.36447,-32.06777 10.830216,27.75243 0 0 1 13.19542,15.52859" />
  <path
     style="fill:#28170b"
     id="path3440"
     sodipodi:type="arc"
     sodipodi:cx="534.06506"
     sodipodi:cy="753.12646"
     sodipodi:rx="83.257301"
     sodipodi:ry="63.627522"
     sodipodi:start="0"
     sodipodi:end="5.8776057"
     sodipodi:open="true"
     d="m 617.32236,753.12646 a 83.257301,63.627522 0 0 1 -74.82989,63.30073 83.257301,63.627522 0 0 1 -89.97864,-50.48597 83.257301,63.627522 0 0 1 56.61439,-73.52123 83.257301,63.627522 0 0 1 101.4398,35.60215" />
  <path
     style="fill:#ffccaa;fill-rule:evenodd;stroke:#000000;stroke-width:0.2573657px;stroke-linecap:butt;stroke-linejoin:miter;stroke-opacity:1"
     d="m 469.27857,758.40534 c 2.6912,-9.34628 -1.50782,-19.29674 18.04996,-27.7827 8.37746,-0.17685 11.62118,-7.27221 27.60583,-1.71498 6.84335,-0.0189 -1.90058,-0.49754 20.88134,2.05797 16.37543,-0.3208 37.11306,-4.86915 46.71755,1.37199 8.29745,4.14324 15.90682,9.52489 17.69605,25.38173 0.89125,19.33333 -10.84856,30.80688 -22.65094,34.29963 -23.98253,5.6172 -29.96256,3.30403 -44.59403,4.80195 -17.88761,-2.06585 -36.27399,-1.4732 -52.38029,-13.03386 -8.02221,-4.34462 -11.79737,-12.8052 -11.32547,-25.38173 z"
     id="path3442"
     inkscape:connector-curvature="0"
     sodipodi:nodetypes="cccccccccc" />
  <path
     style="fill:#ffffff"
     id="path3444"
     sodipodi:type="arc"
     sodipodi:cx="506.31268"
     sodipodi:cy="753.1264"
     sodipodi:rx="12.183993"
     sodipodi:ry="20.306658"
     sodipodi:start="0"
     sodipodi:end="5.8776057"
     sodipodi:open="true"
     d="m 518.49668,753.1264 a 12.183993,20.306658 0 0 1 -10.95072,20.20237 12.183993,20.306658 0 0 1 -13.1676,-16.11255 12.183993,20.306658 0 0 1 8.28503,-23.46423 12.183993,20.306658 0 0 1 14.84485,11.36239" />
  <path
     style="fill:#ffffff"
     id="path3446"
     sodipodi:type="arc"
     sodipodi:cx="558.93005"
     sodipodi:cy="754.32709"
     sodipodi:rx="10.830218"
     sodipodi:ry="19.629765"
     sodipodi:start="0"
     sodipodi:end="5.8776057"
     sodipodi:open="true"
     d="m 569.76027,754.32709 a 10.830218,19.629765 0 0 1 -9.73397,19.52894 10.830218,19.629765 0 0 1 -11.70454,-15.57545 10.830218,19.629765 0 0 1 7.36448,-22.68208 10.830218,19.629765 0 0 1 13.19542,10.98364" />
  <path
     style="fill:#c83737"
     id="path3448"
     sodipodi:type="arc"
     sodipodi:cx="557.07935"
     sodipodi:cy="755.15704"
     sodipodi:rx="8.1226635"
     sodipodi:ry="12.860877"
     sodipodi:start="0"
     sodipodi:end="5.8776057"
     sodipodi:open="true"
     d="m 565.20201,755.15704 a 8.1226635,12.860877 0 0 1 -7.30048,12.79483 8.1226635,12.860877 0 0 1 -8.7784,-10.20461 8.1226635,12.860877 0 0 1 5.52335,-14.86067 8.1226635,12.860877 0 0 1 9.89657,7.19618" />
  <path
     style="fill:#c83737"
     id="path3450"
     sodipodi:type="arc"
     sodipodi:cx="507.32794"
     sodipodi:cy="754.48016"
     sodipodi:rx="8.4611053"
     sodipodi:ry="13.53777"
     sodipodi:start="0"
     sodipodi:end="5.8776057"
     sodipodi:open="true"
     d="m 515.78905,754.48016 a 8.4611053,13.53777 0 0 1 -7.60466,13.46824 8.4611053,13.53777 0 0 1 -9.14417,-10.74169 8.4611053,13.53777 0 0 1 5.75349,-15.64282 8.4611053,13.53777 0 0 1 10.30892,7.57493" />
  <path
     style="fill:#000000;fill-rule:evenodd;stroke:#000000;stroke-width:1px;stroke-linecap:butt;stroke-linejoin:miter;stroke-opacity:1"
     d="m 470.97436,715.07692 c -3.40957,-13.22605 -3.98345,-26.94979 5.26496,-40.20513 6.24301,2.68802 12.48603,4.83971 18.72904,12.45302 l 6.63848,16.74357 z"
     id="path3456"
     inkscape:connector-curvature="0"
     sodipodi:nodetypes="ccccc" />
  <path
     style="fill:#000000;fill-rule:evenodd;stroke:#000000;stroke-width:1.07205379px;stroke-linecap:butt;stroke-linejoin:miter;stroke-opacity:1"
     d="m 568.66763,701.66251 c 6.3269,-10.3263 13.16388,-20.44856 31.99633,-25.77264 6.02531,16.35489 8.3875,31.66317 -3.30997,42.95441 z"
     id="path3458"
     inkscape:connector-curvature="0"
     sodipodi:nodetypes="cccc" />
  <path
     style="fill:#c83737"
     id="path3460"
     sodipodi:type="arc"
     sodipodi:cx="532.7113"
     sodipodi:cy="774.78687"
     sodipodi:rx="7.4457741"
     sodipodi:ry="4.0613313"
     sodipodi:start="0"
     sodipodi:end="5.8776057"
     sodipodi:open="true"
     d="m 540.15708,774.78687 a 7.4457741,4.0613313 0 0 1 -6.69211,4.04047 7.4457741,4.0613313 0 0 1 -8.04687,-3.22251 7.4457741,4.0613313 0 0 1 5.06308,-4.69285 7.4457741,4.0613313 0 0 1 9.07185,2.27248" />
  <path
     style="fill:#c83737;fill-rule:evenodd;stroke:#000000;stroke-width:1px;stroke-linecap:butt;stroke-linejoin:miter;stroke-opacity:1"
     d="m 522.66666,784.95727 c 5.13269,5.09385 6.68931,7.69911 14.87501,4.95254 1.57083,-0.52706 2.70321,-2.49832 4.2703,-4.47391"
     id="path3466"
     inkscape:connector-curvature="0"
     sodipodi:nodetypes="csc" />
  <path
     style="fill:#501616;fill-rule:evenodd;stroke:#000000;stroke-width:1px;stroke-linecap:butt;stroke-linejoin:miter;stroke-opacity:1"
     d="m 398.22222,612.64957 -28.71795,26.80342 -89.9829,147.4188 46.90599,24.41026 c 10.65572,-0.38868 21.13503,-0.30693 39.24785,-20.5812 l 11.00855,22.01709 29.19658,-10.05128 7.17949,-183.79487 z"
     id="path3468"
     inkscape:connector-curvature="0"
     sodipodi:nodetypes="ccccccccc" />
  <path
     style="fill:#501616;fill-rule:evenodd;stroke:#000000;stroke-width:1px;stroke-linecap:butt;stroke-linejoin:miter;stroke-opacity:1"
     d="m 245.05983,833.77778 c -32.86343,41.47881 -44.7886,62.01937 -65.09402,90.94017 34.22605,-5.05523 67.45717,4.48192 105.29915,-53.60684 -16.60361,-12.04421 -30.85389,-32.09021 -40.20513,-37.33333 z"
     id="path3470"
     inkscape:connector-curvature="0"
     sodipodi:nodetypes="cccc" />
  <path
     style="fill:#501616;fill-rule:evenodd;stroke:#000000;stroke-width:1px;stroke-linecap:butt;stroke-linejoin:miter;stroke-opacity:1"
     d="m 685.01121,627.22514 c 80.06128,70.63444 110.11433,157.93829 148.91547,242.3261 -46.09807,-0.91723 -73.80914,-14.96804 -94.76439,-33.84443 -6.39315,23.72886 -18.44169,50.28542 -39.25954,81.22663 -15.73211,-18.95288 -35.28071,-37.90576 -33.84442,-56.85864 l -2.70756,-220.66567 z"
     id="path3476"
     inkscape:connector-curvature="0"
     sodipodi:nodetypes="ccccccc" />
  <path
     style="fill:#501616;fill-rule:evenodd;stroke:#000000;stroke-width:1px;stroke-linecap:butt;stroke-linejoin:miter;stroke-opacity:1"
     d="m 451.82906,888.34188 7.65812,26.80342 5.74359,-24.88889 0,-72.75214 -13.40171,31.58975 z"
     id="path3478"
     inkscape:connector-curvature="0" />
  <path
     style="fill:#501616;fill-rule:evenodd;stroke:#000000;stroke-width:1px;stroke-linecap:butt;stroke-linejoin:miter;stroke-opacity:1"
     d="m 524.5812,824.20513 0,86.15384 17.23077,-19.14529 0.95726,-76.5812 -12.44444,2.87179 z"
     id="path3480"
     inkscape:connector-curvature="0"
     sodipodi:nodetypes="cccccc" />
  <path
     style="fill:#501616;fill-rule:evenodd;stroke:#000000;stroke-width:1px;stroke-linecap:butt;stroke-linejoin:miter;stroke-opacity:1"
     d="m 595.4188,820.37607 1.91453,102.42735 17.23077,-34.46153 0,-50.73505 z"
     id="path3482"
     inkscape:connector-curvature="0"
     sodipodi:nodetypes="ccccc" />
</svg>
